<svg xmlns="http://www.w3.org/2000/svg" xmlns:xlink="http://www.w3.org/1999/xlink" width="1200" height="250.5"><defs><rect id="a" x="-1.001" y="-231.421" width="1200" height="483.842"/></defs><clipPath><use xlink:href="#a" overflow="visible"/></clipPath><path fill="#3F5050" d="M251.626 252.973l.749-82.066s-11.388-2.847-19.928-5.693c-8.541-2.848-17.082-2.848-17.082-2.848s-11.388 5.694-19.928 5.694c-8.541 0-65.479-22.775-91.102-17.081-25.622 5.693-59.785 0-59.785 0l-14.234 2.847h-5.694l-2.847-2.847-22.776 2.847v99.147h252.627z"/><path fill="#808F93" d="M1076.64 252.973c-7.793-2.214-19.982-5.112-33.906-10.177-20.35-7.398-59.201-21.274-59.201-21.274l-31.451-7.4s-16.65-5.55-22.199-8.326c-5.551-2.774-18.502-2.774-29.602-2.774-11.102 0-16.65 1.85-21.277 2.774-4.625.927-29.6 0-32.375-.925-2.775-.924-7.4-1.85-11.1-3.699-3.701-1.851-8.324-2.775-14.801-6.475-6.475-3.7-9.252-1.851-12.949-3.7-3.701-1.852-12.027-1.852-17.576-3.701l-25.9-.925s-12.025 0-19.426-3.701c-7.4-3.698-15.727-.924-15.727-.924s.926-3.699.926-6.475l1.85-3.699-2.775-4.627s-2.773-3.7-9.248-10.175c-6.477-6.476-6.477-5.549-13.877-10.176-7.4-4.624-17.574-15.725-17.574-15.725v-3.701s0-3.699-.928-8.324c-.926-4.625-12.949-5.552-18.502-8.325-5.547-2.775-10.172-9.25-10.172-9.25s-3.701-4.626-10.176-11.102c-6.477-6.475-11.102-6.475-13.875-7.399-2.775-.924-9.25-5.551-15.727-8.325-6.477-2.775-13.875-6.475-13.875-6.475v-11.102s-17.575-8.324-24.976-9.25-18.501-3.701-32.375-6.475c-13.876-2.775-11.102-3.701-15.726-9.25-4.625-5.551-21.276-6.476-26.364-10.175-5.087-3.701-11.564-5.552-18.965-7.401-7.398-1.849-30.523-.925-30.523-.925l-14.801-4.625s-22.201.924-36.075 5.549c-13.876 4.626-31.451-.925-38.389 0s-18.964 3.7-30.988 7.401c-12.026 3.699-25.902 10.175-25.902 10.175l67.17 221.081h699.357z"/><path fill="#59686B" d="M658.462 252.421c2.486-4.38 1.742-7.929 3.16-11.473 1.852-4.627 4.625-11.103 8.324-17.577 3.701-6.474 13.877-8.325 13.877-8.325l-13.877-.924-24.049-11.102s-12.025-7.399-19.426-12.024c-7.4-4.626-15.725-1.853-19.425-5.551-3.701-3.7-.927-8.325-6.476-12.025-5.55-3.701-8.326-3.701-18.5-7.401-10.175-3.698-12.027-6.475-18.501-6.475-6.475 0-9.249.926-9.249.926s-6.476-4.625-5.551-8.326c.924-3.698 4.625-4.625 4.625-4.625s-5.55-8.323-11.1-12.024c-5.551-3.699-3.701-1.852-4.625-5.551-.926-3.701 7.399-4.625 7.399-4.625l.926-8.325-8.325-4.625 1.85-6.476-15.726-1.85-.925-4.625c-.925-4.625 2.775-9.251 2.775-9.251s-8.325 0-12.95-.925c-4.625-.924-5.551-2.776-10.175-6.476-4.625-3.699-9.25-12.024-13.876-16.649-4.625-4.625-14.799-12.026-14.799-12.026 10.174 2.775 36.074 23.126 36.074 23.126s-20.35-21.275-27.75-26.826c-7.401-5.55-18.503-10.176-24.05-12.95-5.551-2.774-12.951-4.624-24.976-5.55-12.026-.926-7.401 0-17.577.926-10.174.924-12.95 0-12.95 0l8.325-6.477s-5.549 0-13.874.925c-8.325.927-36.077-5.549-40.702-5.549s-13.875.925-26.826 4.624c-12.95 3.701-13.875 2.777-19.425 5.551-5.55 2.775-4.625 16.651-6.475 22.2-1.851 5.551-5.551 10.176-7.401 21.277-1.849 11.098-24.052 53.649-24.052 53.649s-1.849 6.477-9.248 14.803c-7.401 8.323-15.726 31.45-15.726 31.45l-7.4 2.775s-3.7 5.549-3.7 8.324c0 2.773 0 7.401-2.773 15.726-2.778 8.325-6.478 17.575-6.478 17.575l-20.35 6.477s-.926 5.55-3.7 14.801c-.665 2.216-2.552 6.397-5.036 11.473h460.689z"/><path fill="#3F5050" d="M177.553 163.041s-11.257-7.083-16.378-10.878c-5.121-3.794-16.252-13.521-16.252-13.521s-5.238 3.083-9.983 3.558c-4.746.476-4.033 2.052-7.829 1.62-3.797-.434-4.746.196-6.17 0-1.423-.196-6.405 0-6.405 0l-9.015 10.479 60.644 12.583 11.388-3.841z"/><path fill="#59686B" d="M63.765 168.06s31.316-.355 40.924 0c9.609.356 27.758 3.203 38.078 4.982 10.32 1.779 23.487 5.694 23.487 5.694l-6.05 8.54s4.271-2.136 18.149-6.455c13.879-4.32 37.012-18.455 37.012-18.455s-11.388 5.693-19.929 5.693c-8.54 0-65.479-22.774-91.101-17.082-25.622 5.694-59.785 0-59.785 0l-14.235 2.848h-5.694c20.998 6.405 41.635 20.996 41.635 20.996l-2.491-6.761z"/><path fill="#97B3B3" d="M160.205 187.276s-.83 11.627-.83 23.487c0 11.863 2.73 36.332 1.839 46.398-.891 10.065-.058 24.301 0 31.417.059 7.118 2.432 45.077 2.432 45.077l-7.118 156.104-27.995-.906s6.643-124.596 7.117-150.336c.474-25.74 1.422-57.494 1.898-62.732.475-5.238.475-46.517.949-52.686s1.898-25.623 4.271-31.791-1.388-8.912 9.49-8.541c10.877.371 50.067-15.641 50.067-15.641l13.04-4.763c0 .002-30.132 18.982-55.16 24.913"/><path fill="#438B9F" d="M140.69 313.953s2.789-44.188 2.789-57.355v-20.79s1.779 33.245 1.779 42.142v27.4l1.779-15.071 1.29 17.237c.001 0 4.166 12.904-7.637 6.437"/><path fill="#696630" d="M1093.917 347.325c-1.232.618-4.314 4.318-4.008 8.324.309 4.009-.924 4.009-.924 4.009s-4.621.62-4.006 3.085l.613 2.466s-2.156 1.233-2.156 3.391v2.158l1.543 1.543s-2.162 2.157-2.469 4.932l-.307 2.775s-3.391 2.78-3.703 6.786c-.309 4.008-1.848 4.626-1.848 4.626s-2.158-2.469-4.627-.618l-2.465 1.85s-3.141 1.871-6.785 2.775c-1.236.307-8.328-1.236-8.635 1.231-.307 2.469-2.158 3.395-2.158 3.395s-3.393-5.241-5.549-3.083c-2.156 2.157-3.082 3.389-3.082 3.389l-3.086 4.012s-4.621-2.157-6.164.925l-1.543 3.082s-6.168-2.158-7.402 2.775l-1.23 4.933.613 2.773-.307 1.543s-3.082-2.156-4.008 0c-.924 2.158 0 5.244 0 5.244s-5.859 1.851-5.242 4.933l2.775 4.317s-4.621 1.847-4.932 4.314c-.312 2.468 3.699 4.625 3.699 4.625s-3.699-.308-3.393 2.468c.307 2.776 0 4.319 0 4.319l-4.627 1.539v4.936c0 1.539-4.01 1.539-4.316 2.464-.309.925-.309 1.85-.309 2.775v.924s-2.777-1.228-3.393 1.236c-.615 2.465.619 3.389.619 3.389h227.555l-.307-124.873-134.436 4.313z"/><path fill="#696630" d="M507.143 372.301l-1.387-1.851 3.7-4.625h-1.85s-.463-1.85.463-5.087l2.311-2.774-1.85-4.627-.924-3.236 1.85-1.851s1.85-3.237 4.625-4.162c0 0-3.238 0-3.238-2.313 0-2.312 4.161-4.161 4.161-4.161l-2.773.462h-2.775s-1.85.463-1.85-1.389c0-1.849 8.324-6.937 8.324-6.937s-2.312 0-3.699-2.313c-1.388-2.312 2.313-3.238 5.087-6.012l2.775-2.776s-1.85-.462-1.389-3.235c.465-2.776 6.015-2.313 3.701-3.239 0 0-1.386-2.775.464-5.549 1.85-2.775 3.701-4.164 3.701-4.164l-3.239-2.312s2.774-3.237 4.626-6.013c1.849-2.775 1.387-5.088 1.387-8.788 0-3.699 1.852-7.4 1.852-7.4s2.773-7.398 2.31 4.164c-.461 11.562 2.776 10.176 2.776 11.562v5.088s3.699 6.937 1.849 8.787l-1.849 1.85s1.387 1.851.462 6.015c-.925 4.161 1.85 1.849 1.387 5.549l-.462 3.7.925 6.476s2.774 6.938.461 8.325l-2.311 1.387s4.624.925 3.7 3.701l-.924 2.773-.465 2.776s5.552 4.162 2.313 5.55c0 0 3.239 2.313.926 4.626l-2.313 2.312s6.014-.924 1.85 5.088c0 0 1.851 7.399-4.162 5.551l-30.526-.928z"/><path fill="#59686B" d="M1135.237 277.023c-12.951-6.475-18.502-8.327-31.451-12.95-12.951-4.626-14.801-5.551-19.428-8.327-4.623-2.773-21.275-5.549-41.625-12.949-20.35-7.399-59.201-21.275-59.201-21.275l-31.451-7.399s-4.547-1.519-9.67-3.357c-2.717.375-4.205.583-4.205.583s-24.051 2.774-24.977 15.724c0 0 14.801 0 27.752 7.401 12.949 7.4 28.676 16.651 36.076 26.825 7.398 10.175 14.799 16.649 15.725 23.126.924 6.475 4.625 12.024 3.701 20.35-.926 8.326-6.475 15.727-6.475 15.727s-19.428 1.849-32.377.925c-12.951-.925-26.826 1.85-30.527 5.551-3.699 3.699-8.324 20.349-8.324 24.974 0 4.626-19.426 27.752-31.451 47.64-12.025 19.889-31.449 28.214-38.852 30.988-7.4 2.775-24.975 3.701-35.15 5.551l-40.701 1.85s-24.051-53.651-26.826-74.926c-2.773-21.277-2.773-45.327-2.773-51.803s-12.025 18.5-20.352 27.75-9.25 15.726-21.275 28.677c-12.027 12.951-20.35 27.751-23.125 29.601-2.775 1.851-5.553 11.101-25.902 14.8-20.35 3.701-21.275 3.701-24.975 3.701h-47.177l-132.042 70.539.492 1.626 779.992 3.683v-169.28s-80.476-38.851-93.426-45.326"/><path fill="#808F93" d="M308.262 56.866s-5.549 5.551-6.475 12.951c-.924 7.399-.924 9.25-2.775 15.727-1.85 6.475-8.325 19.425-8.325 19.425s-6.475 21.274-7.401 25.9c-.926 4.625-28.675 49.952-28.675 49.952s38.851-50.878 43.476-58.277c4.626-7.4 10.175-13.875 11.101-19.427.924-5.549 1.85-10.174 1.85-14.799v-24.977c0-2.775-2.776-6.475-2.776-6.475"/><path fill="#8B8542" d="M260.757 146.67l2.18-2.851c-.723.809-1.45 1.793-2.18 2.851"/><path fill="#808F93" d="M297.162 94.793l5.551-14.802 1.85-4.623 4.625 4.623v-12.95c0-5.549-3.701-22.2-3.701-22.2l-.397.064c-.427 3.56-.73 7.012-1.453 9.186-1.85 5.552-5.55 10.177-7.401 21.277-1.849 11.098-24.051 53.65-24.051 53.65s-1.849 6.476-9.248 14.801c0 0 22.199-24.052 24.975-32.375 2.775-8.327 9.25-16.651 9.25-16.651"/><path fill="#3F5050" d="M171.358 295.522s16.651 0 25.9-1.849c9.251-1.851 15.726-1.851 15.726-1.851l4.625 6.476s4.625-5.551 8.326-11.1c3.7-5.551 10.175-3.7 16.65-21.277 6.475-17.575 68.453-90.651 68.453-90.651s-23.126 23.126-33.301 31.45c-10.176 8.325-29.601 25.901-31.451 30.527-1.851 4.625-16.651 22.199-16.651 22.199l-8.325 9.25 1.85-12.024s-4.626 7.401-10.176 12.95-12.951 9.25-18.5 13.876c-5.551 4.626-23.126 12.024-23.126 12.024"/><path fill="#3F5050" d="M1103.786 264.073c-12.951-4.626-14.801-5.551-19.428-8.327-4.623-2.773-21.275-5.549-41.625-12.948-20.35-7.4-59.201-21.276-59.201-21.276l-31.451-7.4s-4.547-1.518-9.67-3.356c-2.717.375-4.205.583-4.205.583s-24.051 2.773-24.977 15.724c0 0 14.801 0 27.752 7.401 12.949 7.399 28.676 16.65 36.076 26.825 7.398 10.175 14.799 16.649 15.725 23.126.924 6.475 4.625 12.024 3.701 20.351-.926 8.325-6.475 15.726-6.475 15.726s-19.426 1.85-32.377.925-26.826 1.85-30.527 5.551c-3.699 3.699-8.324 20.349-8.324 24.974 0 4.626-19.426 27.752-31.449 47.64-12.027 19.889-31.451 28.214-38.854 30.988-7.4 2.775-24.975 3.701-35.15 5.552-10.176 1.849-40.701 1.849-40.701 1.849s-14.912-33.271-22.605-57.803c-1.514 3.908-2.645 6.479-3.295 7.39-6.938 9.712-6.475 33.762-10.174 36.538-3.699 2.775-31.914 50.876-33.303 54.114-1.387 3.236-.926 8.788 0 10.175.119.181 9.152.483 24.697.875l500.717 2.363v-169.283s-80.477-38.852-93.426-45.326c-12.951-6.475-18.502-8.328-31.451-12.951"/><path fill="#3F5050" d="M317.823 65.199s4.932 8.019 8.632 11.101c3.701 3.083 9.869 8.015 9.869 8.015l8.632 6.785 12.336 8.633 9.866 8.018s3.699 9.865 3.699 16.032v11.102l-6.164-11.102s-6.172 7.401-6.787 9.251c-.614 1.851-3.081 8.019-3.081 8.019s-1.236 1.227-2.468 4.312l-2.464 6.17-2.469 3.7-4.932 10.481s-3.082 3.7-3.701 5.551c-.617 1.85-3.703 5.551-4.935 7.399-1.233 1.852-11.101 10.486-11.101 10.486s7.401-32.684 8.018-37.001c.619-4.318.619-6.172.619-8.635v-5.551c0-2.466-.619-5.552-.619-5.552l-3.082-4.312s0 2.464-1.85 3.082l-1.85.617-2.468 1.851-3.7.615s3.7-4.315 5.551-12.333l1.85-8.019 3.082-3.083c3.7-1.231 9.249.618 9.249.618s-2.467-6.782-5.549-9.251c-3.082-2.467-5.551-5.549-7.401-7.398-1.85-1.852-3.699-2.473-3.699-4.938 0-2.463.622-4.934-.614-7.399-1.236-2.464-2.469-17.264-2.469-17.264"/><path fill="#3F5050" d="M557.099 184.827c-1.236 6.169 0 8.021-1.85 8.637-1.85.614-5.551 5.55-5.551 5.55s-2.471-.618-3.086 3.082c-.614 3.699-2.467 6.165-3.7 8.633-1.232 2.469-4.314 6.785-4.314 6.785l-6.786 12.333-3.082-14.182s-.619 49.947-11.1 63.516c-10.483 13.567-13.566 26.522-14.183 28.986-.62 2.464-4.932 28.983-5.552 30.833-.617 1.85-27.131 40.702-31.45 49.952-4.317 9.25-8.018 22.201-8.018 22.201s-1.231 3.695-3.082 6.781c-1.85 3.085-4.936-20.966-4.936-20.966s-2.463 27.748-4.313 33.916l-4.319 18.501-10.482 17.269-18.605 25.953h198.395c-4.354-9.488-25.517-53.962-29.321-60.486-4.315-7.401-2.472-12.95-1.543-16.344.043-.158.347-.61.77-1.203 7.605-16.99 13.466-30.967 14.956-33.948 3.698-7.399 11.101-28.675 18.499-40.7 7.4-12.026 22.201-27.752 29.602-37.002l15.725-26.826c-4.625 2.775-18.5 10.175-18.5 10.175s7.4-23.125 13.875-29.6c6.475-6.474 4.625-11.101 6.475-15.724 1.852-4.626 4.625-11.103 8.324-17.577 3.701-6.477 13.877-8.326 13.877-8.326l-13.877-.924-24.049-11.103s-12.025-7.398-19.426-12.023c-7.4-4.626-15.725-1.852-19.424-5.55-3.701-3.701-.927-8.326-6.476-12.026-5.551-3.701-8.326-3.701-18.501-7.401-10.176-3.698-12.027-6.475-18.501-6.475-6.475 0-9.25.926-9.25.926s4.015 18.191 2.779 24.357"/><path fill="#3F5050" d="M376.412 169.611s-8.637 20.354-12.337 26.518c-3.699 6.163-5.547 8.019-6.164 11.102-.618 3.079-.614 3.698-1.85 6.78-1.236 3.083-3.7 5.551-3.7 5.551l-1.236 3.7s-1.851-1.235-3.082 1.233c-1.233 2.466-.619.616-4.318 4.317-3.7 3.7-7.401 6.167-7.401 6.167s2.465-5.55 0 3.083l-2.464 8.632-1.85 3.087c-1.236 3.079-1.849 6.777-2.468 9.863l-.617 3.086c-1.233 4.315-1.233-.617-3.083 6.782-1.851 7.4-3.701-3.7-3.701-3.7s-8.631 28.983-10.481 35.151-3.086 8.015-4.319 10.482c-1.232 2.468-1.849.613-3.699 5.551-1.85 4.935-4.932 6.164-5.551 9.25-.617 3.086-8.018 14.8-8.018 14.8s-35.766 54.888-39.465 58.587c-3.7 3.701-6.786 4.93-8.018 8.014-1.233 3.086-3.7 3.084-3.7 5.553 0 2.466-12.333 27.136-12.333 27.136s-2.468 3.086-4.318 5.55-2.469 4.314-2.469 6.165c0 1.85 1.236 1.236-.613 4.317-1.85 3.082-12.337 27.134-12.337 27.134l1.851 9.105h52.419s-13.568-16.507-13.568-19.589-1.85-12.954-1.233-15.419c.619-2.463 1.851-11.714 1.851-11.714l10.482-17.268s14.805-16.032 16.036-20.352c1.232-4.317 1.851-8.633 1.851-8.633s-.615-9.249 0-12.95c.614-3.699 40.083-69.066 40.083-74.002l1.85-11.718 4.318-11.718 3.082 3.698s3.083-8.629 3.083-11.715c0-3.084 17.268-40.085 17.268-40.085l4.317-3.7 7.401-16.65 12.332-20.965 6.169-30.216z"/><path fill="#3F5050" d="M684.749 489.316s-2.314-16.651-2.775-22.663c-.463-6.012 1.85-8.325 2.312-10.175.463-1.851 3.238-5.551 3.238-5.551s4.162-6.475 5.549-10.175c1.389-3.7 5.551-18.501 6.012-19.888.463-1.387 15.266-40.239 15.266-40.239s4.16-1.388 5.086-8.787c.926-7.4 1.85-27.751 1.85-27.751s4.164 12.949 4.627 18.963c.461 6.013 1.85 13.876 2.312 15.726.461 1.85.461 2.773.461 5.087s-1.85 3.701-.924 5.55c.924 1.851 10.174-12.025 10.174-15.725 0-3.701 3.701-41.625 3.701-41.625s5.551 33.3 6.014 35.612c.463 2.312-1.852 4.625.463 7.399 2.311 2.775 4.162 6.014 4.162 6.014s3.699 17.575 4.162 18.963c.461 1.389-1.85 5.087-2.312 6.938-.463 1.85-1.387 7.401-1.387 7.401s-.463 35.149-.926 37.463c-.463 2.312-4.625-9.25-4.625-9.25s-.463 17.111-1.852 21.274c-1.387 4.163-6.938 12.488-6.938 12.488l-5.086-18.501s-4.627 22.664-6.014 27.289l-1.387 4.625-41.163-.462z"/><path fill="#59686B" d="M729.149 181.745s-3.006 3.021-6.707 7.408h5.551s-4.855 3.692-9.48 5.543c-4.627 1.849-6.893 3.237-12.236 5.088-5.34 1.85-10.428 6.476-10.428 6.476s14.568-14.571 16.65-18.039c2.08-3.469 2.543-1.155 2.775-6.476l.23-5.318s4.625 1.155 6.938 0c2.312-1.156 9.482-4.855 9.482-4.855l-2.775 10.173z"/><path fill="#59686B" d="M563.881 146.67s7.397-1.777 11.406 0c4.011 1.778 8.944 2.393 8.944 2.393s-11.719-7.396-14.801-8.939l-14.493-6.168s8.637 5.854 8.637 7.551c0 1.698.307 5.163.307 5.163"/><path fill="#3F5050" d="M473.843 54.091s3.396 14.184 1.853 17.269c-1.543 3.086-1.857 7.089-1.853 8.325.003 1.235.92 2.158 0 3.701-.923 1.543-5.855 23.743-5.855 23.743s3.086-27.138 2.776-31.144c-.311-4.009-.311-8.632-.311-8.632l-2.465 6.475s.619-17.579 0-19.737c-.617-2.157-1.236-4.006-2.16-5.239-.926-1.231-3.086-5.24-3.086-5.24s13.239 2.502 16.332 4.642c3.093 2.138 27.759 22.486 30.843 28.964 0-.001-28.06-17.886-36.074-23.127"/><path fill="#3F5050" d="M538.219 132.668s-2.399 14.852-4.712 19.477c-2.311 4.625-2.775 4.625-2.775 7.399 0 2.775-2.313 7.4-2.775 9.251-.462 1.85-10.638 36.3-11.562 41.97-.926 5.669-6.477 29.719-6.477 29.719s15.726-30.986 16.652-36.537c.925-5.551 5.549-14.794 5.549-14.794l1.851 5.544s1.85-12.488 2.313-16.188c.461-3.701 1.936-11.563 1.936-11.563l5.081-14.8 10.095-4.625-15.176-14.853z"/><path fill="#3F5050" d="M414.264 138.27s13.024 27.288 11.788 33.301c-1.236 6.012 4.776 12.487 4.776 12.487s6.475 17.114 6.014 22.201c-.464 5.088.021 15.262.021 15.262l2.291 10.812 4.163-7.574s3.699 12.027 3.699 16.651c0 4.627-.924 22.198-.924 24.051 0 1.849-8.326 6.936-12.951 14.799-4.624 7.863-18.5 32.84-18.963 38.389-.462 5.551-7.4 28.213-8.325 30.065-.925 1.849-12.951 19.425-12.951 20.812 0 1.389 16.188-45.79 16.651-51.802s2.313-26.363 3.237-30.988c.926-4.625 5.551-16.187 5.551-18.039 0-1.849-6.013 9.251-6.013 9.251s.925-16.187 1.388-24.513c.462-8.325.462-18.501.462-18.501s-.925-3.7-.925-5.549c0-1.85 1.388-16.189 1.388-16.189l-5.088 6.938s4.625-24.05 3.237-33.301c-1.387-9.251-.924-18.038-.462-22.663.462-4.626 0-4.162 0-7.862 0-3.701-.462-14.802-.462-14.802l2.398-3.236z"/><path fill="#438B9F" d="M154.156 210.765s1.896 24.327 2.371 29.719c.476 5.393-.948 18.677-1.185 23.422-.238 4.745-1.186 21.818-1.186 21.818s-1-18.418 0-40.323c.999-21.906-1.423-28.941 0-34.636"/><path fill="#438B9F" d="M156.624 191.19c1.09 3.203 2.327 12.455 1.708 21.708-.618 9.252 2.843 31.305 2.843 31.305v-.002c-.52-11.275-1.8-25.312-1.8-33.437 0-11.862.83-23.488.83-23.488s-4.671.711-3.581 3.914"/><path fill="#438B9F" d="M188.318 175.271s-14.235 5.245-19.217 6.489c-4.982 1.246-8.896 1.78-8.896 1.78s14.59-4.627 18.327-5.872c3.736-1.246 9.786-2.397 9.786-2.397"/><path fill="#9FC1C7" d="M142.767 191.31c-2.373 6.168-3.796 25.622-4.27 31.792-.474 6.168-.474 47.447-.95 52.686-.339 3.742-.92 21.018-1.397 39.965.024-.316 1.457-19.261 1.457-23.496 0-4.27 2.847-56.938 3.083-66.546.236-9.608 3.323-29.893 3.323-29.893s1.423 4.804 1.601 3.737c.178-1.068 1.068-6.94 1.423-10.677.356-3.736 4.627-4.271 4.627-4.271-1.78-.533-3.737 0-3.737 0 .89-1.601 5.769-1.873 5.769-1.873l-.011-.005c-.513.035-1 .055-1.428.039-10.877-.371-7.117 2.374-9.49 8.542"/><path fill="#59686B" d="M160.205 187.276s7.009-1.913 8.877-2.548l-1.226 1.275s17.26-.74 23.665 0c6.406.738 22.242 3.052 22.242 3.052s-21.53-.178-28.647 0c-7.118.178-13.701.712-18.328 0-4.626-.71-6.583-1.779-6.583-1.779"/><path fill="#59686B" d="M183.454 186.209s11.032-.948 15.658-.83c0 0-8.777-2.096-13.285-2.649l2.491-1.028-1.335-.881 14.644-10.567s-26.832 11.962-31.458 12.477l-1.087 1.999s-2.947 1.783-2.354 2.343c.594.559 16.726-.864 16.726-.864"/><path fill="#3F5050" d="M170.169 182.729s1.957 1.408 3.47 1.999c1.512.591 1.593.758 2.313 1.392.72.634 2.313 1.779 2.313 1.779s-4.27-1.513-5.338-1.779c-1.068-.267-2.758-.807-2.758-.807l-1.087-.585 1.087-1.999z"/><path fill="#59686B" d="M202.324 167.127s-5.199-.58-8.669-1.38c-3.469-.802-6.138-1.78-6.138-1.78l-3.984 1.306 1.315 3.397h10.676l6.8-1.543z"/><path fill="#59686B" d="M182.179 163.968s-8.963-1.752-10.821-2.299c-1.857-.549-5.193 1.148-5.193 1.148l5.783 3.502 8.595-1.047s1.102-.592 1.636-1.304"/><path fill="#3F5050" d="M183.533 165.272s-1.888.463-3.4 1.047c-1.513.584-2.58 1.028-2.58 1.028s2.471-1.351 2.99-2.075c.518-.724 1.636-1.305 1.636-1.305l1.354 1.305z"/><path fill="#3F5050" d="M166.254 178.735s6.05-1.689 9.341-2.847c0 0-5.249.712-8.273.979-3.025.268-9.787 1.067-9.787 1.067l2.669 1.471 6.05-.67z"/><path fill="#59686B" d="M201.9 166.319s-4.863-1.108-6.406-1.166l-1.543-.06-3.261 2.137 3.677.947 2.669.492 4.864-2.35z"/><path fill="#3F5050" d="M202.549 167.045s-.53.024-.649-.727c0 0-5.428 1.7-8.972 3.292-3.543 1.593-5.855 2.897-7.398 3.432-1.543.533-16.06 6.022-16.06 6.022s13.255-4.014 18.038-6.205c0 0 12.189-4.343 13.502-5.038 1.314-.694 1.539-.776 1.539-.776"/><path fill="#3F5050" d="M136.15 171.937s5.548-.673 9.344-1.147c0 0-9.369-.248-12.217 0-2.849.247-5.223-.11-5.223-.11l.478 2.481 7.618-1.224z"/><path fill="#59686B" d="M138.149 171.693l-5.36.783s5.352.923 7.131 1.159l13.36 1.635 1.88-1.789-17.011-1.788z"/><path fill="#3F5050" d="M236.894 158.808l-1.872 3.471 5.786 2.169s3.292-1.637 3.025-2.081c-.268-.446-6.939-3.559-6.939-3.559"/><path fill="#59686B" d="M215.365 162.366s8.539-1.79 12.988-.807c4.448.984 12.845.807 12.845.807l-4.305-3.56s10.854.891 12.811.891h5.694l-6.204 10.39-33.829-7.721z"/><path fill="#3F5050" d="M155.16 248.244s1.664 6.824 2.909 10.205c1.246 3.38 2.738 10.854 2.738 10.854l7.76 2.846-1.918-29.179-4.785 1.231-6.704 4.043z"/><path fill="#59686B" d="M166.649 242.969s-3.447-1.066-5.569-.712c0 0-1.337 2.135-2.263 2.669-.926.534-3.657 3.318-3.657 3.318s3.955-1.183 5.745-1.715c1.791-.535 2.858-1.315 2.858-1.315l2.886-2.245z"/><polygon fill="#3F5050" points="164.572,244.586 162.873,244.928 164.83,245.937"/><path fill="#59686B" d="M162.874 244.928l1.437.741s-1.309.036-1.843.267l-1.562-.503 1.968-.505z"/><path fill="#59686B" d="M144.923 138.641l.628.394c2.699 1.691 13.39 8.378 18.034 11.03 5.338 3.049 8.363 5.361 8.363 5.361l6.317 1.78s.266 1.423.978 2.847c.712 1.423 1.3 3.592 1.3 3.592l-4.947.803s-9.342-7.775-10.587-8.665c-1.246-.89-8.385-5.718-8.385-5.718l.911-.752s-3.38-2.07-4.982-2.782l-7.63-7.89z"/><path fill="#59686B" d="M21.774 150.979s-8.008 6.405-9.788 8.362h4.893s-5.782 2.204-9.341 5.106c-3.559 2.901-4.626 3.435-4.626 3.435l1.423 3.812-5.338 3.577.003-21.446s12.633-2.135 22.774-2.846"/><path fill="#59686B" d="M950.462 232.391c3.008 1.388 10.176 5.088 11.795 5.549 1.619.466 22.893 8.788 22.893 8.788l-4.623-9.249s12.807 9.083 21.092 14.942h73.045c-7.801-2.146-19.133-4.97-31.93-9.624-20.35-7.399-59.201-21.275-59.201-21.275l-31.451-7.4s-4.547-1.518-9.67-3.356c-2.717.375-4.205.583-4.205.583s-24.051 2.773-24.975 15.725c0 0 4.744.003 11.207 1.344 10.271 1.27 24.16 3.114 26.023 3.973z"/></svg>